<svg xmlns="http://www.w3.org/2000/svg" xmlns:xlink="http://www.w3.org/1999/xlink" width="1000" zoomAndPan="magnify" viewBox="0 0 750 749.999995" height="1000" preserveAspectRatio="xMidYMid meet" version="1.0"><defs><clipPath id="9893b0abfd"><path d="M 0 164 L 750 164 L 750 698.5 L 0 698.5 Z M 0 164 " clip-rule="nonzero"/></clipPath><clipPath id="03b547127f"><path d="M 339 51.25 L 427 51.25 L 427 139 L 339 139 Z M 339 51.25 " clip-rule="nonzero"/></clipPath></defs><path fill="#000000" d="M 271.507812 405.574219 C 252.300781 405.574219 234.011719 421.140625 234.011719 440.339844 L 234.011719 502.144531 C 234.011719 521.34375 252.300781 536.90625 271.507812 536.90625 C 290.714844 536.90625 309.003906 521.34375 309.003906 502.144531 L 309.003906 440.339844 C 309.003906 421.140625 290.714844 405.574219 271.507812 405.574219 Z M 271.507812 405.574219 " fill-opacity="1" fill-rule="nonzero"/><path fill="#000000" d="M 496.488281 405.574219 C 477.28125 405.574219 458.992188 421.140625 458.992188 440.339844 L 458.992188 502.144531 C 458.992188 521.34375 477.28125 536.90625 496.488281 536.90625 C 515.699219 536.90625 533.988281 521.34375 533.988281 502.144531 L 533.988281 440.339844 C 533.988281 421.140625 515.699219 405.574219 496.488281 405.574219 Z M 496.488281 405.574219 " fill-opacity="1" fill-rule="nonzero"/><g clip-path="url(#9893b0abfd)"><path fill="#000000" d="M 735.113281 398.382812 L 692.972656 384.261719 L 692.972656 363.273438 C 692.972656 313.789062 655.820312 271.335938 607.035156 262.957031 C 569.03125 256.433594 530.011719 251.605469 491.6875 248.449219 L 474.421875 190.96875 C 470.125 176.699219 453.503906 164.964844 436.054688 164.964844 L 329.769531 164.964844 C 312.324219 164.964844 296.097656 176.699219 291.804688 190.96875 L 274.9375 247.730469 C 236.609375 250.886719 202.382812 256.074219 164.378906 262.597656 C 115.59375 270.976562 84.023438 313.792969 84.023438 363.273438 C 84.023438 370.269531 84.023438 377.265625 84.023438 384.261719 L 28.386719 398.382812 C 16.964844 401.816406 0.03125 414.789062 0.03125 428.742188 L 0.03125 513.738281 C 0.03125 527.691406 16.964844 540.667969 28.386719 544.101562 L 84.023438 558.21875 C 84.023438 565.214844 84.023438 572.214844 84.023438 579.210938 C 84.023438 628.6875 115.59375 671.148438 164.378906 679.523438 C 238.011719 692.167969 310.464844 698.488281 384.910156 698.488281 C 459.355469 698.488281 534.398438 692.167969 608.035156 679.523438 C 656.816406 671.148438 692.972656 628.691406 692.972656 579.210938 L 692.972656 558.21875 L 735.113281 544.101562 C 746.535156 540.664062 749.96875 527.691406 749.96875 513.738281 L 749.96875 428.742188 C 749.96875 414.789062 746.535156 401.816406 735.113281 398.382812 Z M 599.980469 579.210938 C 599.980469 583.007812 595.199219 586.339844 591.613281 586.953125 C 523.558594 598.640625 453.003906 604.5625 383.953125 604.5625 C 314.898438 604.5625 243.871094 598.640625 175.820312 586.953125 C 172.230469 586.339844 168.015625 583.007812 168.015625 579.210938 L 168.015625 363.273438 C 168.015625 359.472656 171.714844 356.144531 175.300781 355.527344 C 243.351562 343.84375 313.367188 337.917969 382.417969 337.917969 C 451.46875 337.917969 523.3125 343.84375 591.363281 355.527344 C 594.949219 356.144531 599.980469 359.472656 599.980469 363.273438 Z M 599.980469 579.210938 " fill-opacity="1" fill-rule="nonzero"/></g><g clip-path="url(#03b547127f)"><path fill="#000000" d="M 426.75 95.070312 C 426.75 96.507812 426.679688 97.9375 426.539062 99.367188 C 426.398438 100.796875 426.191406 102.214844 425.910156 103.621094 C 425.628906 105.027344 425.28125 106.417969 424.863281 107.792969 C 424.445312 109.164062 423.964844 110.515625 423.414062 111.839844 C 422.863281 113.167969 422.253906 114.464844 421.574219 115.730469 C 420.898438 116.996094 420.160156 118.222656 419.363281 119.417969 C 418.566406 120.609375 417.710938 121.761719 416.800781 122.871094 C 415.890625 123.980469 414.925781 125.042969 413.910156 126.058594 C 412.898438 127.074219 411.832031 128.035156 410.722656 128.945312 C 409.613281 129.855469 408.460938 130.710938 407.269531 131.507812 C 406.074219 132.304688 404.84375 133.042969 403.578125 133.71875 C 402.3125 134.394531 401.015625 135.007812 399.691406 135.558594 C 398.363281 136.105469 397.011719 136.589844 395.640625 137.007812 C 394.265625 137.421875 392.875 137.769531 391.464844 138.050781 C 390.058594 138.332031 388.640625 138.542969 387.210938 138.683594 C 385.78125 138.824219 384.347656 138.894531 382.914062 138.894531 C 381.476562 138.894531 380.046875 138.824219 378.617188 138.683594 C 377.1875 138.542969 375.769531 138.332031 374.359375 138.050781 C 372.953125 137.769531 371.5625 137.421875 370.1875 137.007812 C 368.8125 136.589844 367.464844 136.105469 366.136719 135.558594 C 364.8125 135.007812 363.515625 134.394531 362.25 133.71875 C 360.980469 133.042969 359.75 132.304688 358.558594 131.507812 C 357.363281 130.710938 356.210938 129.855469 355.101562 128.945312 C 353.992188 128.035156 352.929688 127.074219 351.914062 126.058594 C 350.898438 125.042969 349.9375 123.980469 349.027344 122.871094 C 348.113281 121.761719 347.261719 120.609375 346.464844 119.417969 C 345.664062 118.222656 344.929688 116.996094 344.25 115.730469 C 343.574219 114.464844 342.960938 113.167969 342.410156 111.839844 C 341.863281 110.515625 341.378906 109.164062 340.960938 107.792969 C 340.546875 106.417969 340.199219 105.027344 339.917969 103.621094 C 339.636719 102.214844 339.425781 100.796875 339.285156 99.367188 C 339.144531 97.9375 339.074219 96.507812 339.074219 95.070312 C 339.074219 93.636719 339.144531 92.203125 339.285156 90.777344 C 339.425781 89.347656 339.636719 87.929688 339.917969 86.523438 C 340.199219 85.113281 340.546875 83.722656 340.960938 82.351562 C 341.378906 80.976562 341.863281 79.628906 342.410156 78.300781 C 342.960938 76.976562 343.574219 75.679688 344.25 74.414062 C 344.929688 73.148438 345.664062 71.917969 346.464844 70.726562 C 347.261719 69.53125 348.113281 68.382812 349.027344 67.273438 C 349.9375 66.160156 350.898438 65.101562 351.914062 64.085938 C 352.929688 63.070312 353.992188 62.109375 355.101562 61.195312 C 356.210938 60.285156 357.363281 59.433594 358.558594 58.636719 C 359.75 57.839844 360.980469 57.101562 362.25 56.425781 C 363.515625 55.746094 364.8125 55.136719 366.136719 54.585938 C 367.464844 54.035156 368.8125 53.554688 370.1875 53.136719 C 371.5625 52.71875 372.953125 52.371094 374.359375 52.09375 C 375.769531 51.8125 377.1875 51.601562 378.617188 51.460938 C 380.046875 51.320312 381.476562 51.25 382.914062 51.25 C 384.347656 51.25 385.78125 51.320312 387.210938 51.460938 C 388.640625 51.601562 390.058594 51.8125 391.464844 52.09375 C 392.875 52.371094 394.265625 52.71875 395.640625 53.136719 C 397.011719 53.554688 398.363281 54.035156 399.6875 54.585938 C 401.015625 55.136719 402.3125 55.746094 403.578125 56.425781 C 404.84375 57.101562 406.074219 57.839844 407.269531 58.636719 C 408.460938 59.433594 409.613281 60.285156 410.722656 61.195312 C 411.832031 62.109375 412.898438 63.070312 413.910156 64.085938 C 414.925781 65.101562 415.890625 66.160156 416.800781 67.273438 C 417.710938 68.382812 418.566406 69.53125 419.363281 70.726562 C 420.160156 71.917969 420.898438 73.148438 421.574219 74.414062 C 422.253906 75.679688 422.863281 76.976562 423.414062 78.300781 C 423.964844 79.628906 424.449219 80.976562 424.863281 82.351562 C 425.28125 83.722656 425.628906 85.113281 425.910156 86.523438 C 426.191406 87.929688 426.398438 89.347656 426.539062 90.777344 C 426.679688 92.203125 426.75 93.636719 426.75 95.070312 Z M 426.75 95.070312 " fill-opacity="1" fill-rule="nonzero"/></g></svg>