<svg xmlns="http://www.w3.org/2000/svg" xmlns:xlink="http://www.w3.org/1999/xlink" width="1000" zoomAndPan="magnify" viewBox="0 0 750 749.999995" height="1000" preserveAspectRatio="xMidYMid meet" version="1.0"><defs><clipPath id="244d4b5bde"><path d="M 275.515625 271.355469 L 500.515625 271.355469 L 500.515625 750 L 275.515625 750 Z M 275.515625 271.355469 " clip-rule="nonzero"/></clipPath><clipPath id="9f151752e0"><path d="M 18.75 550.03125 L 356.25 550.03125 L 356.25 750 L 18.75 750 Z M 18.75 550.03125 " clip-rule="nonzero"/></clipPath><clipPath id="7b0364c446"><path d="M 471.632812 375 L 731.25 375 L 731.25 750 L 471.632812 750 Z M 471.632812 375 " clip-rule="nonzero"/></clipPath><clipPath id="2d4c5bb317"><path d="M 546.632812 375 L 656.25 375 C 676.140625 375 695.21875 382.902344 709.28125 396.96875 C 723.347656 411.03125 731.25 430.109375 731.25 450 L 731.25 848.550781 C 731.25 868.441406 723.347656 887.519531 709.28125 901.582031 C 695.21875 915.648438 676.140625 923.550781 656.25 923.550781 L 546.632812 923.550781 C 526.742188 923.550781 507.664062 915.648438 493.597656 901.582031 C 479.535156 887.519531 471.632812 868.441406 471.632812 848.550781 L 471.632812 450 C 471.632812 430.109375 479.535156 411.03125 493.597656 396.96875 C 507.664062 382.902344 526.742188 375 546.632812 375 Z M 546.632812 375 " clip-rule="nonzero"/></clipPath><clipPath id="66c4ca02eb"><path d="M 186.074219 178.824219 L 411.074219 178.824219 L 411.074219 403.824219 L 186.074219 403.824219 Z M 186.074219 178.824219 " clip-rule="nonzero"/></clipPath><clipPath id="2984610cd3"><path d="M 298.574219 178.824219 C 236.441406 178.824219 186.074219 229.191406 186.074219 291.324219 C 186.074219 353.457031 236.441406 403.824219 298.574219 403.824219 C 360.707031 403.824219 411.074219 353.457031 411.074219 291.324219 C 411.074219 229.191406 360.707031 178.824219 298.574219 178.824219 Z M 298.574219 178.824219 " clip-rule="nonzero"/></clipPath></defs><g clip-path="url(#244d4b5bde)"><path fill="#ffde59" d="M 275.515625 271.355469 L 500.515625 271.355469 L 500.515625 750.359375 L 275.515625 750.359375 Z M 275.515625 271.355469 " fill-opacity="1" fill-rule="nonzero"/></g><g clip-path="url(#9f151752e0)"><path fill="#ff3131" d="M 356.148438 717.875 L 356.148438 744.21875 C 356.148438 744.597656 356.113281 744.972656 356.042969 745.347656 C 355.96875 745.71875 355.859375 746.082031 355.714844 746.433594 C 355.570312 746.785156 355.390625 747.121094 355.179688 747.4375 C 354.96875 747.753906 354.730469 748.042969 354.460938 748.3125 C 354.191406 748.582031 353.902344 748.820312 353.585938 749.03125 C 353.269531 749.242188 352.933594 749.421875 352.582031 749.566406 C 352.230469 749.710938 351.867188 749.820312 351.496094 749.894531 C 351.121094 749.964844 350.746094 750 350.367188 750 L 24.632812 750 C 24.253906 750 23.878906 749.964844 23.503906 749.894531 C 23.132812 749.820312 22.769531 749.710938 22.417969 749.566406 C 22.066406 749.421875 21.730469 749.242188 21.414062 749.03125 C 21.097656 748.820312 20.808594 748.582031 20.539062 748.3125 C 20.269531 748.042969 20.03125 747.753906 19.820312 747.4375 C 19.609375 747.121094 19.429688 746.785156 19.285156 746.433594 C 19.140625 746.082031 19.03125 745.71875 18.957031 745.347656 C 18.886719 744.972656 18.851562 744.597656 18.851562 744.21875 L 18.851562 717.875 C 18.851562 715.117188 18.917969 712.359375 19.054688 709.601562 C 19.191406 706.84375 19.394531 704.09375 19.664062 701.347656 C 19.933594 698.597656 20.273438 695.859375 20.675781 693.128906 C 21.082031 690.402344 21.554688 687.683594 22.09375 684.976562 C 22.628906 682.269531 23.234375 679.574219 23.90625 676.898438 C 24.578125 674.222656 25.3125 671.5625 26.113281 668.921875 C 26.914062 666.277344 27.78125 663.660156 28.710938 661.0625 C 29.640625 658.460938 30.632812 655.886719 31.6875 653.335938 C 32.746094 650.789062 33.863281 648.265625 35.042969 645.769531 C 36.222656 643.273438 37.464844 640.808594 38.765625 638.375 C 40.066406 635.941406 41.425781 633.542969 42.84375 631.175781 C 44.265625 628.804688 45.742188 626.476562 47.273438 624.179688 C 48.808594 621.886719 50.394531 619.628906 52.039062 617.414062 C 53.683594 615.195312 55.382812 613.019531 57.132812 610.886719 C 58.882812 608.753906 60.6875 606.664062 62.539062 604.621094 C 64.394531 602.574219 66.296875 600.574219 68.246094 598.625 C 70.199219 596.671875 72.199219 594.769531 74.242188 592.917969 C 76.289062 591.0625 78.378906 589.261719 80.511719 587.507812 C 82.644531 585.757812 84.820312 584.0625 87.035156 582.417969 C 89.253906 580.773438 91.507812 579.183594 93.804688 577.652344 C 96.097656 576.117188 98.429688 574.640625 100.796875 573.222656 C 103.164062 571.804688 105.566406 570.441406 108 569.140625 C 110.433594 567.839844 112.898438 566.601562 115.394531 565.421875 C 117.886719 564.238281 120.410156 563.121094 122.960938 562.066406 C 125.511719 561.007812 128.085938 560.015625 130.683594 559.085938 C 133.28125 558.15625 135.902344 557.292969 138.542969 556.488281 C 141.183594 555.6875 143.84375 554.953125 146.523438 554.28125 C 149.199219 553.613281 151.890625 553.007812 154.597656 552.46875 C 157.304688 551.929688 160.023438 551.457031 162.753906 551.054688 C 165.484375 550.648438 168.222656 550.3125 170.96875 550.039062 C 173.714844 549.769531 176.46875 549.566406 179.226562 549.429688 C 181.980469 549.296875 184.738281 549.226562 187.5 549.226562 C 190.261719 549.226562 193.019531 549.296875 195.773438 549.429688 C 198.53125 549.566406 201.285156 549.769531 204.03125 550.039062 C 206.777344 550.3125 209.515625 550.648438 212.246094 551.054688 C 214.976562 551.457031 217.695312 551.929688 220.402344 552.46875 C 223.109375 553.007812 225.800781 553.613281 228.476562 554.28125 C 231.15625 554.953125 233.816406 555.6875 236.457031 556.488281 C 239.097656 557.292969 241.71875 558.15625 244.316406 559.085938 C 246.914062 560.015625 249.488281 561.007812 252.039062 562.066406 C 254.589844 563.121094 257.113281 564.238281 259.605469 565.421875 C 262.101562 566.601562 264.566406 567.839844 267 569.140625 C 269.433594 570.441406 271.835938 571.804688 274.203125 573.222656 C 276.570312 574.640625 278.902344 576.117188 281.195312 577.652344 C 283.492188 579.183594 285.746094 580.773438 287.964844 582.417969 C 290.179688 584.0625 292.355469 585.757812 294.488281 587.507812 C 296.621094 589.261719 298.710938 591.0625 300.757812 592.917969 C 302.800781 594.769531 304.800781 596.671875 306.753906 598.625 C 308.703125 600.574219 310.605469 602.574219 312.460938 604.621094 C 314.3125 606.664062 316.117188 608.753906 317.867188 610.886719 C 319.617188 613.019531 321.316406 615.195312 322.960938 617.414062 C 324.605469 619.628906 326.191406 621.886719 327.726562 624.179688 C 329.257812 626.476562 330.734375 628.804688 332.15625 631.175781 C 333.574219 633.542969 334.933594 635.941406 336.234375 638.375 C 337.535156 640.808594 338.777344 643.273438 339.957031 645.769531 C 341.136719 648.265625 342.253906 650.789062 343.3125 653.335938 C 344.367188 655.886719 345.359375 658.460938 346.289062 661.0625 C 347.21875 663.660156 348.085938 666.277344 348.886719 668.921875 C 349.6875 671.5625 350.421875 674.222656 351.09375 676.898438 C 351.765625 679.574219 352.371094 682.269531 352.90625 684.976562 C 353.445312 687.683594 353.917969 690.402344 354.324219 693.128906 C 354.726562 695.859375 355.066406 698.597656 355.335938 701.347656 C 355.605469 704.09375 355.808594 706.84375 355.945312 709.601562 C 356.082031 712.359375 356.148438 715.117188 356.148438 717.875 Z M 356.148438 717.875 " fill-opacity="1" fill-rule="nonzero"/></g><g clip-path="url(#7b0364c446)"><g clip-path="url(#2d4c5bb317)"><path fill="#00bf63" d="M 471.632812 375 L 731.25 375 L 731.25 923.644531 L 471.632812 923.644531 Z M 471.632812 375 " fill-opacity="1" fill-rule="nonzero"/></g></g><g clip-path="url(#66c4ca02eb)"><g clip-path="url(#2984610cd3)"><path fill="#38b6ff" d="M 186.074219 178.824219 L 411.074219 178.824219 L 411.074219 403.824219 L 186.074219 403.824219 Z M 186.074219 178.824219 " fill-opacity="1" fill-rule="nonzero"/></g></g></svg>